HIERARCHY
ROOT Hips
{
	OFFSET -14.64140 90.27770 -84.91600
	CHANNELS 6 Xposition Yposition Zposition Zrotation Xrotation Yrotation
	JOINT Spine
	{
		OFFSET 0.00000 13.20850 -1.60436
		CHANNELS 3 Zrotation Xrotation Yrotation
		JOINT Spine1
		{
			OFFSET 0.00000 8.61716 0.00000
			CHANNELS 3 Zrotation Xrotation Yrotation
			JOINT Spine2
			{
				OFFSET 0.00000 8.61717 0.00000
				CHANNELS 3 Zrotation Xrotation Yrotation
				JOINT Spine3
				{
					OFFSET 0.00000 8.61717 0.00000
					CHANNELS 3 Zrotation Xrotation Yrotation
					JOINT Neck
					{
						OFFSET 0.00000 11.07920 1.10792
						CHANNELS 3 Zrotation Xrotation Yrotation
						JOINT Neck1
						{
							OFFSET 0.00000 7.08032 0.00000
							CHANNELS 3 Zrotation Xrotation Yrotation
							JOINT Head
							{
								OFFSET 0.00000 7.08031 0.00000
								CHANNELS 3 Zrotation Xrotation Yrotation
								End site
								{
									OFFSET 0.00000 0.00000 0.00000
								}
							}
						}
					}
					JOINT RightShoulder
					{
						OFFSET -0.01000 7.91373 5.19711
						CHANNELS 3 Zrotation Xrotation Yrotation
						JOINT RightArm
						{
							OFFSET -18.41580 0.00000 0.00000
							CHANNELS 3 Zrotation Xrotation Yrotation
							JOINT RightForeArm
							{
								OFFSET -29.11090 0.00000 0.00000
								CHANNELS 3 Zrotation Xrotation Yrotation
								JOINT RightHand
								{
									OFFSET -24.65040 0.00000 0.00000
									CHANNELS 3 Zrotation Xrotation Yrotation
									JOINT RightHandThumb1
									{
										OFFSET -5.35114 -0.85590 3.97906
										CHANNELS 3 Zrotation Xrotation Yrotation
										JOINT RightHandThumb2
										{
											OFFSET -4.52789 0.00000 0.00000
											CHANNELS 3 Zrotation Xrotation Yrotation
											JOINT RightHandThumb3
											{
												OFFSET -2.46976 0.00000 0.00000
												CHANNELS 3 Zrotation Xrotation Yrotation
												End site
												{
													OFFSET 0.00000 0.00000 0.00000
												}
											}
										}
									}
									JOINT RightHandIndex1
									{
										OFFSET -14.26970 0.00000 2.88139
										CHANNELS 3 Zrotation Xrotation Yrotation
										JOINT RightHandIndex2
										{
											OFFSET -5.48836 0.00000 0.00000
											CHANNELS 3 Zrotation Xrotation Yrotation
											JOINT RightHandIndex3
											{
												OFFSET -3.01859 0.00000 0.00000
												CHANNELS 3 Zrotation Xrotation Yrotation
												End site
												{
													OFFSET 0.00000 0.00000 0.00000
												}
											}
										}
									}
									JOINT RightHandMiddle1
									{
										OFFSET -14.26970 0.00000 -0.09147
										CHANNELS 3 Zrotation Xrotation Yrotation
										JOINT RightHandMiddle2
										{
											OFFSET -6.17441 0.00000 0.00000
											CHANNELS 3 Zrotation Xrotation Yrotation
											JOINT RightHandMiddle3
											{
												OFFSET -3.56743 0.00000 0.00000
												CHANNELS 3 Zrotation Xrotation Yrotation
												End site
												{
													OFFSET 0.00000 0.00000 0.00000
												}
											}
										}
									}
									JOINT RightHandRing1
									{
										OFFSET -12.69180 0.00000 -3.06433
										CHANNELS 3 Zrotation Xrotation Yrotation
										JOINT RightHandRing2
										{
											OFFSET -5.62556 0.00000 0.00000
											CHANNELS 3 Zrotation Xrotation Yrotation
											JOINT RightHandRing3
											{
												OFFSET -3.56744 0.00000 0.00000
												CHANNELS 3 Zrotation Xrotation Yrotation
												End site
												{
													OFFSET 0.00000 0.00000 0.00000
												}
											}
										}
									}
									JOINT RightHandPinky1
									{
										OFFSET -11.11390 0.00000 -6.03719
										CHANNELS 3 Zrotation Xrotation Yrotation
										JOINT RightHandPinky2
										{
											OFFSET -4.52789 0.00000 0.00000
											CHANNELS 3 Zrotation Xrotation Yrotation
											JOINT RightHandPinky3
											{
												OFFSET -2.46976 0.00000 0.00000
												CHANNELS 3 Zrotation Xrotation Yrotation
												End site
												{
													OFFSET 0.00000 0.00000 0.00000
												}
											}
										}
									}
								}
							}
						}
					}
					JOINT LeftShoulder
					{
						OFFSET 0.01000 7.91373 5.19711
						CHANNELS 3 Zrotation Xrotation Yrotation
						JOINT LeftArm
						{
							OFFSET 18.41580 0.00000 0.00000
							CHANNELS 3 Zrotation Xrotation Yrotation
							JOINT LeftForeArm
							{
								OFFSET 29.11090 0.00000 0.00000
								CHANNELS 3 Zrotation Xrotation Yrotation
								JOINT LeftHand
								{
									OFFSET 24.65040 0.00000 0.00000
									CHANNELS 3 Zrotation Xrotation Yrotation
									JOINT LeftHandThumb1
									{
										OFFSET 5.35114 -0.85590 3.97906
										CHANNELS 3 Zrotation Xrotation Yrotation
										JOINT LeftHandThumb2
										{
											OFFSET 4.52789 0.00000 0.00000
											CHANNELS 3 Zrotation Xrotation Yrotation
											JOINT LeftHandThumb3
											{
												OFFSET 2.46977 0.00000 0.00000
												CHANNELS 3 Zrotation Xrotation Yrotation
												End site
												{
													OFFSET 0.00000 0.00000 0.00000
												}
											}
										}
									}
									JOINT LeftHandIndex1
									{
										OFFSET 14.26970 0.00000 2.88139
										CHANNELS 3 Zrotation Xrotation Yrotation
										JOINT LeftHandIndex2
										{
											OFFSET 5.48836 0.00000 0.00000
											CHANNELS 3 Zrotation Xrotation Yrotation
											JOINT LeftHandIndex3
											{
												OFFSET 3.01859 0.00000 0.00000
												CHANNELS 3 Zrotation Xrotation Yrotation
												End site
												{
													OFFSET 0.00000 0.00000 0.00000
												}
											}
										}
									}
									JOINT LeftHandMiddle1
									{
										OFFSET 14.26970 0.00000 -0.09147
										CHANNELS 3 Zrotation Xrotation Yrotation
										JOINT LeftHandMiddle2
										{
											OFFSET 6.17440 0.00000 0.00000
											CHANNELS 3 Zrotation Xrotation Yrotation
											JOINT LeftHandMiddle3
											{
												OFFSET 3.56744 0.00000 0.00000
												CHANNELS 3 Zrotation Xrotation Yrotation
												End site
												{
													OFFSET 0.00000 0.00000 0.00000
												}
											}
										}
									}
									JOINT LeftHandRing1
									{
										OFFSET 12.69180 0.00000 -3.06433
										CHANNELS 3 Zrotation Xrotation Yrotation
										JOINT LeftHandRing2
										{
											OFFSET 5.62556 0.00000 0.00000
											CHANNELS 3 Zrotation Xrotation Yrotation
											JOINT LeftHandRing3
											{
												OFFSET 3.56744 0.00000 0.00000
												CHANNELS 3 Zrotation Xrotation Yrotation
												End site
												{
													OFFSET 0.00000 0.00000 0.00000
												}
											}
										}
									}
									JOINT LeftHandPinky1
									{
										OFFSET 11.11390 0.00000 -6.03719
										CHANNELS 3 Zrotation Xrotation Yrotation
										JOINT LeftHandPinky2
										{
											OFFSET 4.52789 0.00000 0.00000
											CHANNELS 3 Zrotation Xrotation Yrotation
											JOINT LeftHandPinky3
											{
												OFFSET 2.46976 0.00000 0.00000
												CHANNELS 3 Zrotation Xrotation Yrotation
												End site
												{
													OFFSET 0.00000 0.00000 0.00000
												}
											}
										}
									}
								}
							}
						}
					}
					JOINT pCube4
					{
						OFFSET 0.00000 10.91090 1.10792
						CHANNELS 3 Zrotation Xrotation Yrotation
						End site
						{
							OFFSET 0.00000 0.00000 0.00000
						}
					}
				}
			}
		}
	}
	JOINT RightUpLeg
	{
		OFFSET -9.98441 0.00000 0.00000
		CHANNELS 3 Zrotation Xrotation Yrotation
		JOINT RightLeg
		{
			OFFSET 0.00000 -42.11790 0.00000
			CHANNELS 3 Zrotation Xrotation Yrotation
			JOINT RightFoot
			{
				OFFSET 0.00000 -45.00020 -0.00001
				CHANNELS 3 Zrotation Xrotation Yrotation
				JOINT RightForeFoot
				{
					OFFSET 0.00000 -3.74820 0.00000
					CHANNELS 3 Zrotation Xrotation Yrotation
					JOINT RightToeBase
					{
						OFFSET 0.00000 0.06325 14.43120
						CHANNELS 3 Zrotation Xrotation Yrotation
						End site
						{
							OFFSET 0.00000 0.00000 0.00000
						}
					}
				}
			}
		}
	}
	JOINT LeftUpLeg
	{
		OFFSET 9.98441 0.00000 0.00000
		CHANNELS 3 Zrotation Xrotation Yrotation
		JOINT LeftLeg
		{
			OFFSET 0.00000 -42.11800 0.00000
			CHANNELS 3 Zrotation Xrotation Yrotation
			JOINT LeftFoot
			{
				OFFSET 0.00000 -45.00070 0.00000
				CHANNELS 3 Zrotation Xrotation Yrotation
				JOINT LeftForeFoot
				{
					OFFSET 0.00000 -3.74824 0.00000
					CHANNELS 3 Zrotation Xrotation Yrotation
					JOINT LeftToeBase
					{
						OFFSET 0.00000 0.06325 14.43110
						CHANNELS 3 Zrotation Xrotation Yrotation
						End site
						{
							OFFSET 0.00000 0.00000 0.00000
						}
					}
				}
			}
		}
	}
}
MOTION
Frames: 4
Frame Time: 0.050000
-0.04270860865687695 -0.03153022981928535 -0.011522826750099911 -0.03454094430730938 -0.04356394746996992 -0.028406611646506454 6.269005645509504 1.5923929588484482 -2.5245845280698793 -0.7363174316690368 3.4788511415531267 0.3938995953145956 -0.5362189456003492 -1.2375665853214994 1.611971810427533 -0.2498451475369881 -0.44663230998182646 -0.1875318603119776 0.22031674121006517 12.703160636505515 -1.7933468391456295 0.3274803912471133 0.0009306688915773492 -4.368728033990906 1.0273991326761431 -16.17344511303878 -0.3838430585375415 -10.847548156260542 3.733699777426086 -17.17144962950619 79.68541434394406 13.618281024917856 20.552647548182367 0.8444755909875244 -3.0690182579000265 111.69163171855531 4.275398249733171 0.11670623442174469 1.7107860717373327 4.556012319755173 -0.08840934289243929 -1.5902705937998192 0.017257302121624365 -0.011866185280581963 -56.248836567253605 -0.030056269632624116 0.026714809595554563 -56.23658205620058 -38.7640974729029 -0.03898486234563138 -0.009675259490674278 0.005365366359812536 -0.03776881061157326 0.03134672533061982 -0.011145078354866928 0.04425579937176268 0.018225319640789727 -36.715268073270245 -0.016517995358994775 -0.0007722212523776929 7.97001736039324e-05 -0.04674028901769017 -0.010551045624993014 0.03811108928221337 0.038712927784364595 0.003979788852086043 -19.792780030773063 -0.025059179412090123 0.03399821737726 -0.026706364708531043 0.010769560085833407 -0.04116559177019479 -0.014976695405138797 0.024669911875605965 0.023629300375985016 24.014465679648218 0.04735005669121864 0.02592211823719239 28.823968861301037 0.005690770633443152 -0.01954828052962407 28.84768440977777 0.048824070360792976 0.02139257598244856 10.965004798010593 2.473386746047341 14.830734318184279 -73.22172129739555 23.929170639962962 -18.74317407027115 6.948499146167408 -7.742754928123698 -101.54098035405804 -5.842000608979966 -4.862207950064414 -2.1640618902652107 -0.5211501204656883 0.1034036070931997 -8.131045499904976 0.002476860553491487 -0.016832285987029474 44.55094759095673 -0.04417830473386805 -0.02488120196407843 44.558947115413154 12.486156532483651 0.007904691512871867 -0.048686667960083016 -0.04180367027424068 0.0032803979654024377 -0.0450036892443851 -0.012233138736572518 0.025342903552570652 0.005377988030133605 11.1066648075637 0.01744891400000572 -0.0035081551312875817 0.0492158374043349 0.00636553277340163 0.015001467214397197 0.018022786957936996 0.041614287807586726 0.02289378917439584 4.787244362030454 -0.039153014998352664 0.0464500709772855 0.04026350896539303 -0.006531363695525178 -0.02947604667928991 0.0188514739247321 0.033335575556108075 0.020320380974887132 -5.595782696664806 0.025049698269663828 -0.03363025967606711 -6.739330063458351 -0.03952364116652765 -0.047955777925362666 -6.736413651402002 -0.04347535753208912 -0.026288409133391796 0.043184685763543645 0.004565885313645884 -0.019417771270834657 8.020948330929944 3.458783051722852 -19.176217584584894 -0.007660721675032802 10.41227693739657 0.04371998994892139 -5.634571706325429 -15.705289709945738 3.2094626912989197 0.012352686848081147 0.014468261205169431 -0.03019827404329562 -0.016638622851349077 4.665946474647941 -0.03821912158770486 12.466345299172984 -8.232451661422893 6.835740118526863 0.02003095404296385 46.33168968340985 0.014433687853326854 -4.337948312784971 -14.744892093205397 -3.7927623458938466 0.015161212375176621 0.018129061012022215 0.003350272095002595 0.012547946544359945 -10.72085661044814 -0.015154282495196578 
-0.009120874989607035 -0.007282656774387806 -0.016668781349449723 0.04115476306350813 0.01060860446111044 0.040227573481494805 6.380758418627337 1.6211344256376583 -2.4552630775214728 -0.7705202164592747 3.5171631286660974 0.4008925146508098 -0.5308823266877215 -1.2371147146114132 1.762791910416286 -0.29155351843602023 -0.497938922492013 -0.09862311734232426 0.21451200390550093 12.922788444964183 -1.9481448884439467 0.25381701742022417 0.07807042123964124 -5.0342128946872355 1.0571875672296924 -16.162747384021475 -0.4082308303992292 -11.089906823291305 3.7528570777337085 -17.081389384282353 78.09911024686711 12.13478059646504 22.432643159691377 1.1491915271591664 -2.79509501885634 111.2940417495069 4.0023273342574655 0.10836737238281678 1.8690626913199544 4.558606798367979 -0.13480324605561217 -1.5482749374519338 0.03635339468136412 -0.03193877165008468 -56.23797599502884 0.036530776278882834 -0.031091292238018122 -56.186468420634675 -38.776198139274946 -0.022440715610083498 -0.04551015442753289 -0.04796610278013666 0.004926453426110486 -0.01586991445594349 -0.002644391570820062 0.020304094565876087 0.011977730763435687 -36.66892409868781 0.030173529524124967 0.032795924239318104 0.012532815591569609 -0.0005396795329822651 -0.007982687199709924 0.006608927137303075 -0.015054476670910756 -0.0462266146259258 -19.783835442844428 -0.00204837037456033 0.016785659847821773 -0.024887875521173844 -0.04913793413482481 -0.002974499961468707 -0.027449304614393724 -0.00104523446175979 0.015267405254412905 24.024049721767444 0.023957405539658805 0.001641537371918291 28.86302673795896 -0.0042657055331510865 -0.04328460344454903 28.904811501395468 0.009759501551763106 0.02979735450433339 11.079359462592405 2.510640997518231 14.861617002983499 -72.53083836190527 22.329922888460004 -19.64526056481269 6.856499192838545 -7.103999348026104 -101.23895538920355 -5.70366758489408 -4.2562649022918055 -2.6800371928925797 -0.48478465231446555 0.11704370909891232 -8.146433468236326 0.04211934413528026 0.017662260971189968 44.59508804868918 0.00988781621197739 -0.013114386384586306 44.56532694604177 12.475829720257632 0.036687127942148894 -0.017336390937927996 -0.001537692332933679 0.007093682339873941 0.006857973447359022 -0.03522405710298868 0.022076843514373563 -0.04139996828206774 11.134303779049464 -0.024766125833077923 0.04920089919899653 0.02007461069025227 0.008553046193212137 0.02745377618753863 0.04866240431162897 0.00666589724284698 -0.03984173282209575 4.763120466078172 0.007835034452115646 0.010150918579981513 -0.03170273376565256 -0.024567760962101892 0.020187436277681686 -0.03917577865484453 0.027389765334429075 0.009169054802840937 -5.6341504191731575 0.036494598636115934 -0.0026423383183291206 -6.680778862679612 0.019828004656677747 0.02206427914484001 -6.6948284750045 0.02619695166404447 0.010165115721887724 -0.008418440336885874 0.022028234939505974 -0.01975318561622403 8.004705393248466 3.505491506493089 -19.244020335614533 -0.04554577103455563 10.436200489340063 0.01436706973225699 -5.609647329293689 -15.630676251979041 3.195454044911068 0.0019248792676867486 0.03301580924949879 0.02144222622430623 0.019241384878271546 4.712132728956313 -0.04892322341203389 12.42825064079576 -8.246185140269597 6.853690511569451 -0.037367797012122284 46.35882074325382 0.024227406764808345 -4.275542176495823 -14.776952648664954 -3.82539739125897 0.04303014109516061 -0.0330262606638321 0.04242097707065686 0.019746712834287958 -10.709637329821529 0.031859963114046076 
0.028211957309096328 0.03828112418277257 -0.024532352077241006 -0.010252676111071155 0.03258944707166625 0.0476754554466296 6.5025389574699854 1.7591726368768728 -2.466884883203857 -0.7470060915260572 3.5293734015662563 0.41434098815754683 -0.5209727634975694 -1.2390406642491152 1.8891761715617266 -0.1992457977749824 -0.5033145586073534 -0.1496079135643503 0.30987949352953853 13.286333000561852 -2.2013080960162057 0.2438842438133056 0.14136719009244278 -5.725478645481623 1.0504808132069174 -16.07869200044986 -0.5225112410676737 -11.653238533393544 3.8585049702221896 -16.985560247621475 76.09870996253943 10.159475930521456 25.32217525991788 0.6276407474213127 -2.740218810790158 110.79416091380939 3.8738328801075226 0.14095198876966336 2.0053571764921534 4.49002935197335 -0.1710135668068653 -1.5691640680158874 0.04939967478672646 -0.00835183142985054 -56.27222409325484 0.007119963498884812 -0.027258987504747492 -56.2286911120987 -38.756601208998056 -8.567838122900349e-05 -0.009954492743402227 0.04088061492676258 -0.013876486389693826 -0.019219137456530234 0.04632097072722984 0.003957612243557472 0.01990622896046676 -36.70619222224383 -0.038053697005936 -0.046829420295254394 -0.02185617157535057 0.013838075345678054 -0.016743918604764898 0.032439262523124464 0.03740949292042216 -0.005606006042766663 -19.75387995067349 -0.006268996687504392 0.0029114505272333302 -0.019404901567464623 -0.010091621822907109 0.011052755481215643 0.034517257697090575 -0.008122329670023739 -0.004102133374093209 24.01780265046385 -0.00753036486954667 -0.027764663585955827 28.871344159352763 -0.01091986013466 0.002314722282939078 28.878505188026715 0.04564046318947803 0.014755180986728355 11.405515630591513 2.568579229216712 14.951584241606316 -71.05914190687145 20.335321192881576 -21.80918580551392 8.063966470493394 -6.88341541357684 -101.559615141602 -5.386973433389552 -3.1950629619353808 -3.440122987059243 -0.4722500534573932 0.04618386208871275 -8.091274586841527 -0.03571039886744705 0.0183204783740898 44.58167499284991 0.033566537545870787 -0.0100711127331497 44.52170301433649 12.474196177764428 -0.00680838225984112 0.042785893261744236 0.030764045654679134 0.03569198271731702 0.030656754346630993 -0.04118509277207197 -0.00880248216241426 -0.048295818658386815 11.100431802519342 0.005545754449936047 0.011009662637613472 -0.013938657628116007 -0.003979060617671857 -0.03028545117602737 -0.017706100750143866 0.04105613554772528 0.018406818202724082 4.767505695002443 -0.02629738175175167 0.010442380811056173 0.012779235925129475 -0.02428835429804993 -0.025486725240766027 -0.016680048299363953 0.0013872223029019518 -0.010230352428098341 -5.629763401740583 -0.019454457794702427 0.013478231479348882 -6.6839978527829125 -0.04917972956581131 -0.0026896150227297237 -6.733530385481627 -0.03636559121068805 -0.03973717428797148 0.01742333149982386 0.015056281774394113 -0.024949189097733516 8.060164109249481 3.504389430645869 -19.214303349042755 -0.04394629137171202 10.420675192876223 -0.012260013746764664 -5.631681519103503 -15.695828014361862 3.1438798610462664 0.03188480409379458 0.034567563536122656 -0.01713578057870294 -0.01804677779325779 4.6502814194712805 0.037520245487107584 12.468007793290932 -8.240281805313682 6.845708453226223 -0.013265416041475315 46.34708347229206 0.010141052034252017 -4.3604189060373155 -14.780701108766271 -3.867274315316286 0.026207490363718496 0.023356777079948883 -0.003474390164041568 0.02574332032775112 -10.751254161487148 -0.041793783177767475 
0.0011341271137641628 -0.018798870024539616 0.02406688957461733 -0.013484789902784584 0.03344381804932389 0.025403777670311253 6.633602786337992 1.9215334886531534 -2.4378433013193845 -0.6952813216342637 3.598000738786209 0.36098399531103165 -0.5448674514653843 -1.2991679074492257 1.9690824363422346 -0.21767420229055687 -0.4936779689567999 -0.07560263583645332 0.36469517562379916 13.686871348130627 -2.434985031361595 0.21387500237314983 0.2113300952506508 -6.36726546409474 1.132520855526108 -15.962290023747848 -0.5653787776779773 -12.160332228864531 4.007412696311091 -16.813660987801843 74.08722283633291 8.730105641169835 28.519113353066288 -0.7281070015770547 -2.833410135617645 110.1662448846342 3.9221792595684795 0.16434399075939418 2.2373615247525573 4.547995789157187 -0.14907503063030966 -1.607314846324782 0.007756839203304141 -0.0407460043867624 -56.23146509266434 -0.025385446698010343 0.032087251906019944 -56.24217575386128 -38.769563418254904 0.04264753182950777 -0.01554073531528486 0.025093171127479455 0.03549853800388455 0.038382757351767084 0.02843839398857753 0.012341763700101474 -0.02029857752366615 -36.65495745926097 0.007105004727616146 -0.046750858317048456 0.01351958878063539 0.024006374014971087 0.041257336085780805 0.04772292386948143 0.005722670895405388 0.04047911540781613 -19.75610055128504 -0.020252614093432694 -0.01965545090685318 -0.021282722741798422 0.04759790877977649 0.005491924701488819 0.008941218567033978 0.0007153751699022751 0.035422414847369146 24.036241298321006 0.027871242632277485 -0.013326457611806949 28.82258496395281 0.04331224602778636 -0.02578855873186737 28.844077466448358 0.045785538054484376 0.037917589984546564 11.863858411627277 2.6222933904361647 14.894758379187381 -69.44685468184822 18.671196919619465 -24.718673577223175 10.192874675913076 -6.8559091563514025 -102.40482239467266 -5.21114884283893 -2.0578975885420374 -4.158743776331802 -0.45565635844286934 0.06151665317390315 -8.097614391099404 -0.019502978148088383 0.0008484058589268605 44.59791776174364 0.039519314398085724 0.018464550639281166 44.598046138376155 12.501879235133806 -0.003796751681157338 -0.02688667123294009 -0.026763758612516585 0.02647014945687996 -0.02770138734191466 -0.009553934833817416 0.002889251956274557 0.026635148389184064 11.066295792986086 0.03296532292630255 0.030198127905708798 0.022619014194163112 -0.018874084778247483 0.019288640294073952 -0.0434384034438753 0.0487129113222808 -0.004575854120080235 4.785780260769503 0.02377303461888342 0.02651752712467888 0.006197193069094247 -0.015097159314125048 -0.035719154349953465 0.03029194050090115 0.015908965094578936 -0.0006756954963255497 -5.567604047802085 0.00605797821279296 0.004984291323558988 -6.768599790781341 -0.026915219979919695 -0.003648325424864009 -6.67466342671138 0.049083932372400385 -0.030207394837171057 -0.026154787364503856 -0.014690103285018418 -0.0008094697479810096 8.04080313220233 3.5211643494858205 -19.190014469539342 -0.010016805068396695 10.401207533428437 0.0404489275032999 -5.616778583725564 -15.62707657556424 3.1791854532640347 0.0400407353617995 -0.025537316104259817 0.006155288395392314 -0.001844364989516095 4.692216440322446 0.0026413889658679834 12.483551217341894 -8.203550290897573 6.9268166871643535 -0.03975006683412844 46.41480351684622 -0.006310761836105317 -4.349194321051216 -14.717903826700278 -3.8494485020926805 -0.00012217107697756245 -0.0013095708356302244 -0.0004714994908867665 -0.035895142411159334 -10.749352925960796 -0.04348915394387927 
